# xmcd CD database file
#
# Track frame offsets:
#	180
#	5674
#	16866
#	33035
#	43877
#	51932
#	61752
#	73104
#	79759
#	89126
#	98214
#	138276
#	154215
#	164761
#
# Disc length: 2567 seconds
#
# Revision: 2
# Processed by: cddbd v1.5.2PL0 Copyright (c) Steve Scherf et al.
# Submitted via: CDex 1.70beta2
#
DISCID=ba0a050e
DTITLE=Eleanor and Graham Townsend - Canada's Champtionship Fiddle Team Recorded Live at Barre, Vermont
DYEAR=1981
DGENRE=Country
TTITLE0=Introduction by Mike Donovan: Back Up And Push
TTITLE1=Medley: Forky Deer/Chubby's Hornpipe
TTITLE2=Faded Love
TTITLE3=Draggin' The Bow
TTITLE4=Ice On The Road
TTITLE5=Medley: Ontario Swing/Bowin' The Strings
TTITLE6=Mocking Bird
TTITLE7=Ward Allen Breakdown
TTITLE8=Maple Sugar
TTITLE9=Here And There
TTITLE10=Medley: High Level Hornpipe/Crooked Stovepipe/Mitton's Breakdown/Big John McNeil/Ste.Anne's Reel/Don Messer's Breakdown/Londonderry and Lighting Hornpipe/Angus Campbell
TTITLE11=Shannon Waltz
TTITLE12=Four String Polka
TTITLE13=Orange Blossom Special
EXTD=YEAR: 1981
EXTT0=
EXTT1=
EXTT2=
EXTT3=
EXTT4=
EXTT5=
EXTT6=
EXTT7=
EXTT8=
EXTT9=
EXTT10=
EXTT11=
EXTT12=
EXTT13=
PLAYORDER=
